<svg xmlns="http://www.w3.org/2000/svg" viewBox="0 0 491.05 27.99"><g id="レイヤー_2" data-name="レイヤー 2"><g id="レイヤー_1-2" data-name="レイヤー 1"><path d="M13.94,1c.73.39.82.42.82.73s-.06.27-.58.39c-.09,0-.09.15-.09.21,0,.45,3.63,5.9,10.59,8.65a16.08,16.08,0,0,1,2.42.91c0,.21-1,.36-1.21.42a3.9,3.9,0,0,0-1.51,1,1.23,1.23,0,0,1-.61.36c-.48,0-4.54-3.14-6.77-5.74a23.38,23.38,0,0,1-3.27-4.48c-.09-.15-.33-.45-.48-.45s-.49.42-1.18,1.27a36.78,36.78,0,0,1-9.38,8.83A12.18,12.18,0,0,1,.21,14.44c-.06,0-.21,0-.21-.12s.39-.46.6-.61c5.93-4,9.83-11,10.05-11.4s1-2.27,1-2.3A6.08,6.08,0,0,1,13.94,1ZM15.39,16a3.35,3.35,0,0,0,1.12-.15,12.68,12.68,0,0,1,1.42-.73A5.81,5.81,0,0,1,19.87,17c0,.33-.48.48-.73.54-.45.09-.57.15-.69.33S15.79,24.36,15.54,25c-.75,2.12-1,2.6-2.08,2.6-.61,0-1.27-.3-1.27-.93A7,7,0,0,1,13,24.78c.7-1.48,3.12-6.62,3.12-7.53,0-.48-.45-.48-.94-.48H9.68c-.73,0-2.78,0-3.81.09-.12,0-.55.06-.67.06s-.15-.06-.24-.18L4.35,16c-.12-.15-.12-.15-.12-.21s.06-.06.09-.06c.22,0,1.12.09,1.34.09.87,0,2.44.12,4.17.12Zm-2.45-4.69c1.06,0,1.15,0,1.46-.51.63-1,.69-1.12,1-1.12a5.93,5.93,0,0,1,2.3,2c0,.43-.45.43-1.21.43H11.1c-.67,0-1.79,0-2.69.06a5.91,5.91,0,0,1-.67.09.71.71,0,0,1-.27-.18l-.57-.7a.46.46,0,0,1-.1-.21s0-.06.07-.06.72.09.81.09c.91.06,2.45.12,3.33.12Z"/><path d="M40.31,4.85c-.94,0-1,.09-1.84,1.09-1.61,1.93-5.27,5.23-6.32,5.23,0,0-.13,0-.13-.09A7.25,7.25,0,0,1,33,10,24.79,24.79,0,0,0,38.62.92c0-.15.24-.79.33-.79.55.21,3,1.27,3,1.7,0,.21-.84.75-1,.9a2.42,2.42,0,0,0-.73,1.09c0,.21.06.21.82.21H49.9c1.39,0,1.51-.06,1.72-.27s.91-1.51,1.21-1.51c.12,0,3.06,1.78,3.06,2.18s-.61.42-1.64.42H47.48c-.42,0-.85.06-.91.73v4c0,.94.37,1,1.09,1h1.15a5.66,5.66,0,0,0,1.48-.09c.27-.16,1.33-1.55,1.7-1.55.15,0,2.81,1.61,2.81,2s-.4.39-1.63.39H47.66c-.85,0-1.09.09-1.09,1.12s0,3.48,0,4.63c0,.39,0,.94.94.94h4.93c1,0,1.15,0,1.66-.76C54.92,16.16,55,16,55.31,16s3.12,2,3.12,2.42c0,.27-.28.36-1.61.36H47.54c-.76,0-.91.31-.91,1v2.66c0,.55.18,3.18.18,3.78s0,.82-.3,1a2.7,2.7,0,0,1-1.6.73,1,1,0,0,1-.94-.94c0-.42.18-2.48.21-3,0-.93.09-3.59.09-4.35,0-.91-.48-.91-.9-.91H36.83c-.72,0-2.75,0-3.81.09l-.63.06c-.12,0-.18-.06-.27-.18l-.58-.69c-.15-.15-.15-.15-.15-.22s.06-.06.12-.06c.61,0,3.6.22,4.3.22s.84-.22.84-2c0-.88-.15-5.44-.15-5.56,0-.49,0-.55.12-.55a4.62,4.62,0,0,1,1.48.42,3.5,3.5,0,0,0,1.43.25H43.4c.87,0,.93-.43.93-.94,0-4.78,0-4.78-.9-4.78Zm-.54,6.5c-.88,0-1,.12-1,2.72,0,4,.06,4,1,4h3.54c1,0,1,0,1-3.6,0-3,0-3.09-1-3.09Z"/><path d="M78.23,3.64c0,.27-1.42,2.81-1.42,3.33,0,.21.15.42.55.69.72.52,1.09.85,1.09,1.3s-.34.73-2.24,1.39c-.82.28-.88.49-1.45,2.39a15.06,15.06,0,0,0-.64,2.64c0,.48.12.48,2.24.66.72.06,2.15.51,2.15,1.27,0,.54-.82.88-1.58.88-.45,0-2.63-.4-2.78-.4-.76,0-.76,1.43-.76,2.09,0,1.36.4,4.51,4.18,4.51,1.27,0,4.35-.55,4.35-4.12,0-1.3-.27-3-3-6.83a.48.48,0,0,1-.12-.3c0-.28.66.3.75.36,3.48,2.81,4.84,5.2,4.84,7.32,0,2.87-2.9,5.44-6.44,5.44-.57,0-5.77,0-5.77-5.47,0-.49.24-2.54.24-3s-.06-.57-.58-1a3.29,3.29,0,0,1-1.63-2.57c0-.91.33-1.91,2.24-3.45C74,9.57,74.21,9.45,74.21,9s-.15-.51-.82-1c-.87-.7-2-1.61-2-2.88,0-.21.06-.54.27-.54s.67.63.79.72a4.41,4.41,0,0,0,2,1.06c.85,0,1.09-2.69,1.09-3.11a8,8,0,0,0-.3-2,.59.59,0,0,1-.06-.3C76.12.83,78.23,2.82,78.23,3.64Zm-5,7.62c-.69,0-2.2,1-2.2,2.18a2,2,0,0,0,1.54,1.81.38.38,0,0,0,.33-.24,19.73,19.73,0,0,0,.73-3.23C73.61,11.53,73.61,11.26,73.21,11.26Z"/><path d="M110.38,4.12a14.1,14.1,0,0,1-.45,1.64,17.81,17.81,0,0,0-.28,2.08c0,.4,0,.49.37.49a4.91,4.91,0,0,0,1.27-.24,13.51,13.51,0,0,1,2-.76c.79,0,1.91.85,1.91,1.33s-.73,1.18-3.21,1.18c-.06,0-2,0-2.08,0-.25.06-.31.24-.31.82s.37,8.13.46,8.47.3.54,1.87,1.2c1.88.82,3.84,1.67,3.84,2.64a1.15,1.15,0,0,1-1.09,1.21,9.5,9.5,0,0,1-2.78-1.46,4.31,4.31,0,0,0-1.72-.75c-.3,0-.36.09-.76.94a5,5,0,0,1-4.69,2.69c-2.78,0-5.2-1.82-5.2-3.54,0-2,2.91-3.27,6.35-3.27.28,0,1.36.09,1.58.09.45,0,.63-.06.63-.75s-.3-5.78-.3-6.54c0-.24,0-6.41-.12-7.47a3.39,3.39,0,0,0-.82-1.81.67.67,0,0,1-.18-.36c0-.12.21-.12.27-.12A3.59,3.59,0,0,1,110.38,4.12Zm-5.53,16.27c-.31,0-4,0-4,1.7,0,.57,1,1.48,3.21,1.48,3.3,0,3.84-2.24,3.75-2.51S106.18,20.39,104.85,20.39Z"/><path d="M135,4.79A20.81,20.81,0,0,0,140,3.46a4.73,4.73,0,0,1,2.51-.7,2,2,0,0,1,2.26,1.73c0,1.09-.69,1.69-2,2.81a44.05,44.05,0,0,0-5.51,6.11c0,.06,0,.15.21.15a9.73,9.73,0,0,0,1.64-.67,13.55,13.55,0,0,1,4.63-.93,6.35,6.35,0,0,1,6.53,6c0,6.32-10.65,8.25-12.37,8.25-.27,0-.46-.06-.46-.18s.13-.21,1.18-.51c.31-.09,9.05-2.63,9.05-8a3.92,3.92,0,0,0-4.21-4.17c-4.72,0-9,3.63-10.37,6.08-1.12,1.93-1.45,2.51-2.33,2.51a1.12,1.12,0,0,1-1.12-1.3c0-1.12.46-1.61,1.6-2.85,2.24-2.42,10.47-11.43,10.47-12.61a.3.3,0,0,0-.33-.33c-1,0-4.72,2.36-5.6,2.36a2,2,0,0,1-1.39-.79c-.15-.21-1.18-1.57-1.18-1.6s.21-.18.3-.18S134.78,4.79,135,4.79Z"/><path d="M169.47,5.27A14.12,14.12,0,0,1,168.9,7a71.6,71.6,0,0,0-1.28,10.76c0,3.06.58,5.78,4.63,5.78a14.88,14.88,0,0,0,6.35-1.57c.46-.21,2.75-1.48,2.88-1.48a.14.14,0,0,1,.15.15c0,.33-4.48,5.2-10.16,5.2-3.94,0-5.81-2.27-5.81-8.35a69.64,69.64,0,0,1,.69-8.41c.13-1,.4-3.47.4-4.32a3.79,3.79,0,0,0-.27-1.48c0-.09-.34-.79-.34-.82,0-.21.24-.3.43-.3C168.14,2.13,169.47,4.58,169.47,5.27Z"/><path d="M204.07,1.4c.72,0,3.72,1.54,3.72,2.66,0,.82-8.11,8.65-8.11,10a2.42,2.42,0,0,0,.91,1.67c2.69,2.93,6.8,7.38,6.8,9.46a1.28,1.28,0,0,1-1.3,1.42c-.94,0-1.12-.57-1.75-2.35-.94-2.67-4.24-6.69-5-7.66-.94-1.15-1.18-1.6-1.18-2.23,0-.82.39-1.73,2.45-4.3,3-3.75,4.11-5.32,4.11-6.44a2.81,2.81,0,0,0-.76-1.75c-.09-.15-.15-.28-.09-.37S204,1.4,204.07,1.4Z"/><path d="M235.12,9.08c0,1-2.3,1.91-3,2.21-.43.15-.45.27-.52,1.33-.06.67-.06,3.12-.06,3.27s0,.54.28.54c.09,0,2.57-1,3-1.21A14.2,14.2,0,0,1,240,14a4.64,4.64,0,0,1,4.66,4.57c0,4-4.2,5.81-6.68,5.81-1.73,0-3.12-.88-3.12-2.45a2.7,2.7,0,0,1,1.51-2.39.16.16,0,0,1,.15.15c0,.09-.06.15-.12.24a1.25,1.25,0,0,0-.27.82c0,1.45,1.66,1.45,2,1.45,2,0,4.53-1.33,4.53-3.75a3.13,3.13,0,0,0-2.9-3.33c-.85,0-2.72.4-6.26,2.27-1.69.91-1.88,1-1.88,1.51,0,.34.09,1.7.09,2,0,1.39-.45,3.39-1.54,3.39-.81,0-1.15-.64-1.39-1.12-1-1.88-1.12-1.88-1.51-1.88a2.57,2.57,0,0,0-.76.18,5.77,5.77,0,0,1-1.15.61c-.33,0-1.87-.91-1.87-1.91,0-.54.33-1.18.88-1.18.18,0,1,.16,1.24.16.81,0,1.36-.16,3.14-1,1.54-.76,1.73-.85,1.73-1.7,0-.69,0-3.26-.07-3.78,0-.21-.09-.66-.42-.66a7.13,7.13,0,0,0-1.39.27,6.49,6.49,0,0,1-2.15.57c-1,0-2.17-2.08-2.17-2.29a.21.21,0,0,1,.24-.22c.09,0,.45.13.54.13a9,9,0,0,0,1.39.15,13.21,13.21,0,0,0,3.84-.91,22.82,22.82,0,0,0,.31-3.3,3,3,0,0,0-1-2.42,3.1,3.1,0,0,1-.43-.48c0-.27.49-.33.67-.33a3,3,0,0,1,3.12,2.05,12.41,12.41,0,0,1-.64,1.58,16.24,16.24,0,0,0-.3,2c0,.12.06.33.24.33s1.06-.33,1.06-.75c0-.06-.15-.36-.15-.43s.06-.09.12-.12C233.67,7.72,235.12,8.15,235.12,9.08Zm-6.89,11.59c0,.45.81,1.42,1.27,1.42s.84-.85.84-2.33c0-.12,0-.42-.09-.48S228.23,20.24,228.23,20.67Zm19.87-9.41c0,.64-.37,1.45-1,1.45-.18,0-.88-.06-1-.06s-.79.21-.91.21a.14.14,0,0,1-.15-.15,2.07,2.07,0,0,1,.09-.24,1.58,1.58,0,0,0,.12-.54c0-1.21-1.51-1.64-2.54-1.64a2.69,2.69,0,0,0-1.18.31.67.67,0,0,1-.3.09c-.09,0-.12,0-.12-.12a3.85,3.85,0,0,1,3.27-1.91C246.68,8.66,248.1,9.87,248.1,11.26Z"/><path d="M263.55,6.66c.48,0,.72,0,.94-.27.39-.51.42-.57.57-.57s2,1.24,2,1.6c0,.21-.31.45-.49.61-.39.27-.45.36-.45,1,0,.91.24,5.36.24,5.75s-.06,1.81-1.27,1.81c-.27,0-.66-.09-.76-.3-.18-.48-.24-.6-.57-.6-.51,0-.51.42-.51.6,0,.58.15,7.87.15,8.71a2.43,2.43,0,0,1-2.66,2.42c-.28,0-.55-.36-.67-.54a2.91,2.91,0,0,0-.73-.88c-.12-.09-1-.51-1-.7s.24-.15.33-.15l1.72,0c.82,0,1.3,0,1.3-1.75,0-.42-.18-6.11-.18-6.32-.06-1-.06-1.45-.57-1.45-.34,0-.49.27-.64.48a1.19,1.19,0,0,1-1.18.61c-.54,0-.75-.16-.75-.7,0-.27.09-1.54.09-1.81,0-1.49.09-4.6.09-6.23,0-.25-.15-1.61-.15-1.73s.09-.33.27-.33,1.33.57,1.57.57c.58,0,.58-.42.61-.66.09-1,.15-1.76.15-2,0-.75-.33-.78-.85-.78h-2.09c-.48,0-.78,0-.78.78s.09,5.33.09,6.29c0,4.18-.3,10-2.3,15.09-.21.52-.88,2.09-1.24,2.09-.06,0-.06-.06-.06-.09s.3-1.18.33-1.36a51.91,51.91,0,0,0,1.48-12.7c0-1.58-.24-10.32-.57-11.46a5.14,5.14,0,0,1-.24-.61A.23.23,0,0,1,255,1c.18,0,.33.12,1.66,1a2.23,2.23,0,0,0,1.49.39h4.17c1.27,0,1.42,0,1.69-.24S264.85,1,265.09,1a6,6,0,0,1,1.72,1.75c0,.43-.6.43-1.6.43h-1.33c-.69,0-.82,0-1.42,1.45-.12.3-.7,1.6-.7,1.72,0,.36.28.36.49.36Zm-2.63,12.89c0,.15-.76.6-.85.75A15.92,15.92,0,0,1,258.13,23c-.45.45-1.66,1.72-2.08,1.72a.06.06,0,0,1-.06-.06c0-.12,1.21-2.15,1.39-2.57a10.9,10.9,0,0,0,1-3.06c.12-.75.15-.84.36-.84a5.34,5.34,0,0,1,1.12.51C260.4,19,260.92,19.31,260.92,19.55Zm2.51-8.68c.9,0,.9-.36.9-1.39,0-1.82,0-2-.9-2h-2.15c-.91,0-.91.36-.91,1.42,0,1.79,0,2,.91,2Zm-2.15.81c-.39,0-.73.13-.82.52V14c0,.55.15.94.88.94h2.09c.75,0,.9-.15.9-2.15,0-.69-.12-1.06-.87-1.06Zm5.44,12.07c-.42,0-.57-.15-.87-1.42a17.45,17.45,0,0,0-1.09-3c-.12-.31-.24-.55-.33-.76,0-.06,0-.12.09-.12s2.93,1.42,3.23,3.69C267.87,22.94,267.33,23.75,266.72,23.75Zm7.5.7a.39.39,0,0,1-.39.33c-.54,0-.76.09-2.63.88a52.54,52.54,0,0,1-5.81,1.69s-.15,0-.15-.06a28.89,28.89,0,0,1,3.18-1.81c1.45-.85,2.6-1.64,2.93-2.45.09-.22.21-.46.36-.46s.25.06,1.15.67C274.07,24.05,274.22,24.14,274.22,24.45Zm1.7-17.76c.78,0,.78,0,1.06-.33s.51-.6.75-.6c.09,0,2.12,1.15,2.12,1.69a.43.43,0,0,1-.18.3c-.61.43-.67.46-.73.73a38.25,38.25,0,0,0-.18,4.72c0,1.45,0,2.39.09,4.35,0,.52.15,3,.15,3.54s0,1.66-1.3,1.66c-.51,0-.69-.3-.94-.78a.8.8,0,0,0-.78-.34h-4.39c-.57,0-.63.16-.87.88a1.47,1.47,0,0,1-1.49.85c-.39,0-.6-.12-.6-.85,0-.15,0-1.09,0-1.15.15-3.14.15-8.28.15-11.82a19.22,19.22,0,0,0-.12-2.63c0-.15-.15-.91-.15-1a.27.27,0,0,1,.3-.3c.36,0,1.91,1,2.3,1s.27-.12.36-.54c0-.18.24-1.87.24-2.12,0-.45-.12-.78-.69-.78-.39,0-2.45.15-2.66.15s-.15-.09-.27-.21l-.58-.7c-.12-.15-.12-.15-.12-.18s.06-.09.09-.09c.21,0,1.12.09,1.33.12.88,0,2.45.09,4.17.09h2.33c1.39,0,1.52,0,1.91-.51.72-1,.85-1.09,1.09-1.09a5.67,5.67,0,0,1,2.2,2c0,.43-.6.43-1.6.43h-4.11c-.88,0-.91,0-1.39,1a11.23,11.23,0,0,0-.91,2.12c0,.42.45.42.73.42Zm.09,4.69c.88,0,.88-.51.88-1.12V8.6c0-.57,0-1.12-.88-1.12h-4.45c-.9,0-.9.55-.9,1.09,0,2.75,0,2.81.9,2.81ZM276,16.13c.88,0,.91-.45.91-1V12.83a.79.79,0,0,0-.91-.66h-4.39c-.9,0-.9.51-.9,1.09,0,2.87,0,2.87.9,2.87Zm0,4.69c.91,0,.91-.24.91-3A.77.77,0,0,0,276,17h-4.39c-.84,0-.84.57-.84,1,0,2.63,0,2.9.87,2.9Zm3.72,6.83c-.67,0-1.09-.57-2-1.78a16.61,16.61,0,0,0-2.06-2.21c-.36-.33-.63-.54-.63-.66s.12-.09.21-.09a12,12,0,0,1,2.45.78c1.42.58,2.69,1.24,2.9,2.63A1.1,1.1,0,0,1,279.64,27.65Z"/><path d="M292.19,8.9a4,4,0,0,1-.37,1.21,10.76,10.76,0,0,0-.72,3.9c0,3.06,1.57,5.27,2.51,5.27.51,0,.63-.15,1.54-1.67.18-.3.7-1,.94-1s.15.13.15.25a3.6,3.6,0,0,1-.09.6,8.68,8.68,0,0,0-.4,2.3,4.08,4.08,0,0,0,.19,1.21,7.6,7.6,0,0,1,.24,1c0,.6-.64.94-1.15.94-1.94,0-5.75-3.18-5.75-9,0-.84.43-4.56.43-5.35a7.74,7.74,0,0,0-.22-1.75,4.17,4.17,0,0,1-.24-1c0-.09.12-.12.18-.12C290.83,5.67,292.19,8.09,292.19,8.9Zm14.75.7a7.52,7.52,0,0,1,2.7,5.78c0,.57-.06,2-1.52,2s-1.48-1.63-1.48-2c0-2.51,0-3.78-1.6-5.38-.24-.24-1.45-1.18-1.45-1.36s.12-.15.27-.15A5.87,5.87,0,0,1,306.94,9.6Z"/><path d="M323.94,8.9a4.13,4.13,0,0,1-.36,1.21,10.55,10.55,0,0,0-.73,3.9c0,3.06,1.57,5.27,2.51,5.27.51,0,.64-.15,1.54-1.67.18-.3.7-1,.94-1s.15.13.15.25a3.6,3.6,0,0,1-.09.6,8.52,8.52,0,0,0-.39,2.3,4.12,4.12,0,0,0,.18,1.21,7.6,7.6,0,0,1,.24,1c0,.6-.63.94-1.15.94-1.93,0-5.74-3.18-5.74-9,0-.84.42-4.56.42-5.35a8.44,8.44,0,0,0-.21-1.75,4.17,4.17,0,0,1-.24-1c0-.09.12-.12.18-.12C322.58,5.67,323.94,8.09,323.94,8.9Zm14.76.7a7.54,7.54,0,0,1,2.69,5.78c0,.57-.06,2-1.51,2s-1.48-1.63-1.48-2c0-2.51,0-3.78-1.61-5.38-.24-.24-1.45-1.18-1.45-1.36s.12-.15.27-.15A5.89,5.89,0,0,1,338.7,9.6Z"/><path d="M352.76,21a40.91,40.91,0,0,0,4-11.13c0-.3-.12-.3-1.09-.3A5.76,5.76,0,0,1,353,9.05a2.89,2.89,0,0,1-1.57-1.63.13.13,0,0,1,.12-.12,6.55,6.55,0,0,1,.69.27,11.31,11.31,0,0,0,2.7.33,6.63,6.63,0,0,0,2.14-.27,8.83,8.83,0,0,0,.34-2.48A4.08,4.08,0,0,0,357,3.28c-.12-.15-.84-.91-.84-1.12s.57-.7,1.36-.7A2.72,2.72,0,0,1,360,3.07c0,.15-.34.75-.34.9,0,.58,2.42,1.09,2.73,1.09l.93-.06a.87.87,0,0,1,1,.94c0,1.69-2.57,2.57-4.57,3.11-1,.28-1.15.31-1.27.85a83.43,83.43,0,0,1-2.2,8.59c-2.09,6.29-3.18,6.29-3.75,6.29-.73,0-.82-1-.82-1.33S351.82,22.78,352.76,21Zm6.38-13.82c.15,0,2.45-.82,2.45-1.21s-1.63-1-2-1c-.18,0-.27.06-.33.36-.12.61-.12.7-.27,1.43C359,7,359,7.21,359.14,7.21ZM361.44,20c.63,2.63,3.9,3.21,6.2,3.21.51,0,2.81-.21,3.29-.21,1,0,2.42.51,2.42,1.51s-1.12,1-3.69,1c-4.9,0-9-1.24-9-5.05,0-.7.18-1.33.42-1.33S361.41,19.94,361.44,20Zm6.68-10.52c2.87,0,5.05.84,5.05,2.17,0,.73-.63.73-.88.73s-1.45-.09-1.69-.09a5.13,5.13,0,0,0-2.24.48,4.9,4.9,0,0,1-1.27.4c-.06,0-.15,0-.15-.09s1.57-1.36,1.57-1.7-2.14-.48-2.6-.48a17.86,17.86,0,0,0-2.17.12c-.19,0-.88.12-1,.12s-.24,0-.27-.06C362.25,10.72,364.89,9.51,368.12,9.51Z"/><path d="M391.74,5.27a12.57,12.57,0,0,1-.58,1.7,73,73,0,0,0-1.27,10.76c0,3.06.58,5.78,4.63,5.78a14.88,14.88,0,0,0,6.35-1.57c.46-.21,2.75-1.48,2.88-1.48a.14.14,0,0,1,.15.15c0,.33-4.48,5.2-10.16,5.2-3.94,0-5.81-2.27-5.81-8.35a69.64,69.64,0,0,1,.69-8.41c.13-1,.4-3.47.4-4.32a3.79,3.79,0,0,0-.27-1.48c0-.09-.34-.79-.34-.82,0-.21.24-.3.43-.3C390.41,2.13,391.74,4.58,391.74,5.27Z"/><path d="M425.85,1.68c0-.1-.21-.4-.21-.46s.57-.21.76-.21c.81,0,2.44.76,2.44,1.39a8.72,8.72,0,0,1-.75,1.6,7.26,7.26,0,0,0-.46,2c0,.06,0,.18.13.18a3.5,3.5,0,0,0,.84-.27,3.73,3.73,0,0,1,1.09-.24c.3,0,.88.09.88.57,0,1.12-2.06,1.72-2.9,2-.25.06-.31.09-.34.54,0,.09-.15,1.7-.15,2.93,0,.7,0,.88.39.88s2.51-.6,2.51-1.57c0-.09-.12-.45-.12-.54s.09-.1.15-.1.79.16.94.16c1.24.09,2,.15,2,.81,0,1.06-3.36,2.45-4.75,2.91-.94.33-1,.36-1,.66,0,.58.33,4.05.37,4.36.12,1,.12,1.11.75,1.36,2.36,1,4.3,2.57,4.3,4a1.18,1.18,0,0,1-1,1.27c-.43,0-.55-.15-1.64-1.45a5.37,5.37,0,0,0-2.11-1.64c-.18,0-.24.16-.4.49a5.85,5.85,0,0,1-5.14,3.05c-2.84,0-3.87-2-3.87-3.26,0-1.82,1.85-3.21,5.45-3.21.27,0,1.39.09,1.6.09s.33-.09.33-1.12c0-.6,0-2.63-.06-3.44,0-.28,0-.46-.3-.46s-2.24.15-2.63.15a6.18,6.18,0,0,1-4.18-1.24,3.39,3.39,0,0,1-.87-1.39c0-.06,0-.12.09-.12a7.51,7.51,0,0,1,1.15.42,11.6,11.6,0,0,0,3.66.55c.72,0,2.75,0,3-.58,0-.09.27-4.05.27-4.08s-.15-.15-.63-.18c-2.15-.15-4.06-1.69-4.06-2.87,0-.06,0-.22.13-.22s.75.43.84.49a5.38,5.38,0,0,0,2.94.81c.63,0,.93-.15,1-.45a20.78,20.78,0,0,0,.19-2.66A5.68,5.68,0,0,0,425.85,1.68Zm-3.05,19.5c-.06,0-3.24,0-3.24,1.73,0,1.14,1.57,1.51,2.42,1.51a5,5,0,0,0,3-1.12c.55-.49.82-1.21.7-1.48C425.46,21.3,423.34,21.18,422.8,21.18Z"/><path d="M447.9,8.57a61.75,61.75,0,0,0,8.22-1c1.57-.27,1.76-.3,1.76-1.09a18.13,18.13,0,0,0-.43-4.11c0-.15-.51-.7-.51-.85s.45-.21.63-.21c1.33,0,2.51.55,2.51,1.51,0,.15-.12.79-.12.94,0,.7.88,1.15,2.66,1.91a6.75,6.75,0,0,0,2.67.6c.3,0,1.57-.15,1.81-.15s1.72.12,1.72,1.18c0,.79-.57,1.06-1.63,1.06-.63,0-3.45-.27-4-.27a14.26,14.26,0,0,0-3.27.3c-.42.18-.48.6-.48,3.26a4,4,0,0,0,.39,2,9.5,9.5,0,0,1,.88,4.08c0,5.87-4.57,9.62-5.51,9.62-.06,0-.15,0-.15-.12s1.24-1.51,1.45-1.82a9.75,9.75,0,0,0,1.7-4.44c0-.09,0-.42-.3-.42l-.64.06c-1.63,0-3.08-1.55-3.08-4,0-.39,0-3.72,2.93-4.17.85-.12.85-.3.85-1.84s0-1.82-.61-1.82A38.11,38.11,0,0,0,452,10a28.4,28.4,0,0,1-3.24,1.21c-.66,0-3.17-1.27-3.17-2.51,0-.12.06-.27.15-.3C446,8.39,447.47,8.57,447.9,8.57Zm9,5c-.76,0-1.73,1.24-1.73,2.78a2.19,2.19,0,0,0,2,2.42c1.18,0,1.21-1.81,1.21-2.3a5.85,5.85,0,0,0-.39-2.11A1.29,1.29,0,0,0,456.88,13.59Zm2.78-7.23c0,.49.12.58.54.58.13,0,2.09-.06,2.09-.52a6.61,6.61,0,0,0-2.3-1.6C459.78,4.88,459.66,5.58,459.66,6.36Z"/><path d="M487.78,24.48a1.64,1.64,0,1,1,1.64,1.63A1.65,1.65,0,0,1,487.78,24.48ZM491,4.55c0,.69-.45,3.2-.54,4A102.7,102.7,0,0,0,490,20.09c0,.79,0,1.24-.54,1.24s-.55-.42-.55-1.18a99.4,99.4,0,0,0-.51-11.61c-.06-.61-.52-3.45-.52-4a1.62,1.62,0,0,1,1.58-1.61A1.63,1.63,0,0,1,491,4.55Z"/></g></g></svg>