<svg xmlns="http://www.w3.org/2000/svg" viewBox="0 0 182.03 21.19"><defs><style>.cls-1{fill:gray;}</style></defs><g id="レイヤー_2" data-name="レイヤー 2"><g id="レイヤー_1-2" data-name="レイヤー 1"><path class="cls-1" d="M2.55,8.47A7.59,7.59,0,0,1,4.6,6.91a5.53,5.53,0,0,1,2.59-.59,5.26,5.26,0,0,1,2.09.39,4.09,4.09,0,0,1,1.51,1.11,5,5,0,0,1,.91,1.73A7.53,7.53,0,0,1,12,11.79V21H9.47V11.79a3.87,3.87,0,0,0-.75-2.54,2.75,2.75,0,0,0-2.27-.91,4.27,4.27,0,0,0-2.1.54,7.05,7.05,0,0,0-1.8,1.47V21H0V0H2.55Z"/><path class="cls-1" d="M26.24,6.32a7.42,7.42,0,0,1,2.85.53,6.19,6.19,0,0,1,2.16,1.49,6.45,6.45,0,0,1,1.37,2.35,9.18,9.18,0,0,1,.48,3.06,9.26,9.26,0,0,1-.48,3.08,6.36,6.36,0,0,1-1.37,2.33,5.94,5.94,0,0,1-2.16,1.49,8.12,8.12,0,0,1-5.72,0,5.89,5.89,0,0,1-2.17-1.49,6.36,6.36,0,0,1-1.37-2.33,9.26,9.26,0,0,1-.48-3.08,9.18,9.18,0,0,1,.48-3.06A6.45,6.45,0,0,1,21.2,8.34a6.14,6.14,0,0,1,2.17-1.49A7.49,7.49,0,0,1,26.24,6.32Zm0,12.87a3.72,3.72,0,0,0,3.19-1.43,6.62,6.62,0,0,0,1.05-4,6.72,6.72,0,0,0-1.05-4,3.7,3.7,0,0,0-3.19-1.44,4.62,4.62,0,0,0-1.89.37A3.57,3.57,0,0,0,23,9.75a4.64,4.64,0,0,0-.8,1.72,9,9,0,0,0-.27,2.3,6.55,6.55,0,0,0,1.07,4A3.75,3.75,0,0,0,26.24,19.19Z"/><path class="cls-1" d="M52.94,6.55,47.05,21H44.78L38.9,6.55H41a.76.76,0,0,1,.51.16.65.65,0,0,1,.27.37l3.66,9.28q.18.53.3,1c.09.34.17.67.24,1,.08-.33.16-.66.25-1s.19-.67.31-1l3.7-9.28a.78.78,0,0,1,.29-.38A.75.75,0,0,1,51,6.55Z"/><path class="cls-1" d="M71.24,19a4.65,4.65,0,0,1-1.12,1,7.28,7.28,0,0,1-1.4.69,9.07,9.07,0,0,1-1.55.41,9.44,9.44,0,0,1-1.58.13,7.47,7.47,0,0,1-2.75-.5,6.2,6.2,0,0,1-2.18-1.48,6.9,6.9,0,0,1-1.43-2.42,9.85,9.85,0,0,1-.52-3.3,8.34,8.34,0,0,1,.47-2.82,6.67,6.67,0,0,1,1.33-2.27,6,6,0,0,1,2.12-1.51,6.89,6.89,0,0,1,2.82-.55,6.52,6.52,0,0,1,2.4.44A5.46,5.46,0,0,1,69.76,8,5.88,5.88,0,0,1,71,10a7.79,7.79,0,0,1,.45,2.74,1.59,1.59,0,0,1-.13.8.52.52,0,0,1-.48.2H61.22a8.66,8.66,0,0,0,.38,2.38,4.7,4.7,0,0,0,.93,1.68,3.74,3.74,0,0,0,1.42,1,4.78,4.78,0,0,0,1.86.34A5.66,5.66,0,0,0,67.45,19a8,8,0,0,0,2-1,1.17,1.17,0,0,1,.58-.22.55.55,0,0,1,.48.24Zm-2-6.76a4.92,4.92,0,0,0-.25-1.62,3.53,3.53,0,0,0-.72-1.27,3.31,3.31,0,0,0-1.16-.82,4.41,4.41,0,0,0-4.44.77,5,5,0,0,0-1.31,2.94Z"/><path class="cls-1" d="M81.25,9.44a6.52,6.52,0,0,1,1.68-2.31,3.67,3.67,0,0,1,2.44-.84,4.14,4.14,0,0,1,.87.1,2.3,2.3,0,0,1,.75.32L86.81,8.6a.41.41,0,0,1-.43.36,2.91,2.91,0,0,1-.59-.09,3.72,3.72,0,0,0-.86-.09,3.51,3.51,0,0,0-1.22.2,3,3,0,0,0-1,.59,4.7,4.7,0,0,0-.75,1,9,9,0,0,0-.6,1.32V21H78.85V6.55H80.3a.79.79,0,0,1,.57.16,1,1,0,0,1,.21.54Z"/><path class="cls-1" d="M107.59,8.47a7.59,7.59,0,0,1,2-1.56,5.55,5.55,0,0,1,2.59-.59,5.23,5.23,0,0,1,2.09.39,4.09,4.09,0,0,1,1.51,1.11,5,5,0,0,1,.92,1.73,7.53,7.53,0,0,1,.31,2.24V21h-2.55V11.79a3.87,3.87,0,0,0-.75-2.54,2.74,2.74,0,0,0-2.27-.91,4.27,4.27,0,0,0-2.1.54,7.05,7.05,0,0,0-1.8,1.47V21H105V0h2.55Z"/><path class="cls-1" d="M136.91,19a4.9,4.9,0,0,1-1.13,1,6.75,6.75,0,0,1-1.4.69,8.83,8.83,0,0,1-1.55.41,9.36,9.36,0,0,1-1.58.13,7.47,7.47,0,0,1-2.75-.5,6.2,6.2,0,0,1-2.18-1.48,6.9,6.9,0,0,1-1.43-2.42,9.86,9.86,0,0,1-.51-3.3,8.34,8.34,0,0,1,.46-2.82,6.67,6.67,0,0,1,1.33-2.27,6.12,6.12,0,0,1,2.12-1.51,6.92,6.92,0,0,1,2.82-.55,6.45,6.45,0,0,1,2.4.44A5.37,5.37,0,0,1,135.42,8a5.6,5.6,0,0,1,1.26,2,7.79,7.79,0,0,1,.45,2.74,1.75,1.75,0,0,1-.12.8.55.55,0,0,1-.49.2h-9.64a8.66,8.66,0,0,0,.38,2.38,4.7,4.7,0,0,0,.93,1.68,3.77,3.77,0,0,0,1.43,1,4.73,4.73,0,0,0,1.85.34,5.66,5.66,0,0,0,1.64-.22,8,8,0,0,0,2-1,1.21,1.21,0,0,1,.58-.22.58.58,0,0,1,.49.24Zm-2-6.76a5.19,5.19,0,0,0-.25-1.62,3.71,3.71,0,0,0-.73-1.27,3.22,3.22,0,0,0-1.16-.82,3.79,3.79,0,0,0-1.55-.29,3.86,3.86,0,0,0-2.88,1.06A4.91,4.91,0,0,0,127,12.19Z"/><path class="cls-1" d="M146.92,9.44a6.29,6.29,0,0,1,1.68-2.31A3.63,3.63,0,0,1,151,6.29a4.24,4.24,0,0,1,.88.1,2.16,2.16,0,0,1,.74.32l-.18,1.89A.41.41,0,0,1,152,9a2.74,2.74,0,0,1-.58-.09,3.88,3.88,0,0,0-.87-.09,3.55,3.55,0,0,0-1.22.2,3,3,0,0,0-1,.59,4.74,4.74,0,0,0-.76,1,9,9,0,0,0-.6,1.32V21h-2.55V6.55H146a.76.76,0,0,1,.57.16.91.91,0,0,1,.22.54Z"/><path class="cls-1" d="M170.85,19a4.71,4.71,0,0,1-1.13,1,6.75,6.75,0,0,1-1.4.69,9,9,0,0,1-1.54.41,9.44,9.44,0,0,1-1.58.13,7.49,7.49,0,0,1-2.76-.5,6.29,6.29,0,0,1-2.18-1.48,6.9,6.9,0,0,1-1.43-2.42,9.86,9.86,0,0,1-.51-3.3,8.34,8.34,0,0,1,.46-2.82,6.67,6.67,0,0,1,1.33-2.27,6.07,6.07,0,0,1,2.13-1.51,6.84,6.84,0,0,1,2.81-.55,6.45,6.45,0,0,1,2.4.44A5.37,5.37,0,0,1,169.36,8a5.6,5.6,0,0,1,1.26,2,7.79,7.79,0,0,1,.46,2.74,1.72,1.72,0,0,1-.13.8.55.55,0,0,1-.49.2h-9.63a8.31,8.31,0,0,0,.37,2.38,4.87,4.87,0,0,0,.94,1.68,3.67,3.67,0,0,0,1.42,1,4.76,4.76,0,0,0,1.85.34,5.61,5.61,0,0,0,1.64-.22,8.15,8.15,0,0,0,1.19-.48,8.34,8.34,0,0,0,.84-.48,1.14,1.14,0,0,1,.57-.22.58.58,0,0,1,.49.24Zm-2-6.76a4.92,4.92,0,0,0-.25-1.62,3.71,3.71,0,0,0-.73-1.27,3.14,3.14,0,0,0-1.16-.82,3.79,3.79,0,0,0-1.55-.29,3.89,3.89,0,0,0-2.88,1.06,4.91,4.91,0,0,0-1.32,2.94Z"/><path class="cls-1" d="M178.47,19.41a1.82,1.82,0,0,1,.13-.7,1.73,1.73,0,0,1,.38-.57,2,2,0,0,1,.56-.39,1.82,1.82,0,0,1,1.4,0,2,2,0,0,1,.56.39,1.73,1.73,0,0,1,.38.57,1.66,1.66,0,0,1,.15.7,1.63,1.63,0,0,1-.15.7,1.8,1.8,0,0,1-.94.94,1.82,1.82,0,0,1-1.4,0,1.73,1.73,0,0,1-1.07-1.64Zm3-18.84V8.71q0,.64,0,1.26c0,.4,0,.81-.07,1.23s-.07.83-.11,1.26-.09.9-.15,1.39h-1.71c-.05-.49-.1-.95-.15-1.39s-.07-.85-.1-1.26-.05-.83-.07-1.23,0-.83,0-1.26V.57Z"/></g></g></svg>