<svg xmlns="http://www.w3.org/2000/svg" viewBox="0 0 156.71 21.2"><defs><style>.cls-1{fill:gray;}</style></defs><g id="レイヤー_2" data-name="レイヤー 2"><g id="レイヤー_1-2" data-name="レイヤー 1"><path class="cls-1" d="M15.58,16.76a.51.51,0,0,1,.39.18l1.1,1.18a8.67,8.67,0,0,1-3,2.27,10.41,10.41,0,0,1-4.32.81,10.1,10.1,0,0,1-4-.76A8.85,8.85,0,0,1,2.66,18.3,9.57,9.57,0,0,1,.7,15,12.23,12.23,0,0,1,0,10.78,11.74,11.74,0,0,1,.73,6.55a9.57,9.57,0,0,1,2-3.3A9.24,9.24,0,0,1,5.92,1.1,10.67,10.67,0,0,1,10,.34a9.78,9.78,0,0,1,3.84.7,9.69,9.69,0,0,1,2.94,1.89L15.85,4.2a1,1,0,0,1-.22.24.68.68,0,0,1-.37.09,1.07,1.07,0,0,1-.62-.28,9.31,9.31,0,0,0-1-.62A7.72,7.72,0,0,0,12.17,3,7.65,7.65,0,0,0,10,2.73a7.48,7.48,0,0,0-2.89.55A6.35,6.35,0,0,0,4.82,4.87,7.33,7.33,0,0,0,3.35,7.4a9.91,9.91,0,0,0-.53,3.38,9.74,9.74,0,0,0,.55,3.4,7.43,7.43,0,0,0,1.49,2.53A6.28,6.28,0,0,0,7.1,18.28a7.1,7.1,0,0,0,2.78.54,10.37,10.37,0,0,0,1.65-.11,7,7,0,0,0,1.35-.33A5.17,5.17,0,0,0,14,17.8,7.85,7.85,0,0,0,15.09,17,.74.74,0,0,1,15.58,16.76Z"/><path class="cls-1" d="M26.57,0V21H24V0Z"/><path class="cls-1" d="M38.16,2a1.58,1.58,0,0,1-.15.69,2,2,0,0,1-.4.57,1.69,1.69,0,0,1-.59.39,1.66,1.66,0,0,1-.7.15,1.58,1.58,0,0,1-.69-.15,1.67,1.67,0,0,1-.56-.39A1.76,1.76,0,0,1,34.54,2,1.85,1.85,0,0,1,35.07.73a2,2,0,0,1,.56-.39A1.74,1.74,0,0,1,36.32.2a1.82,1.82,0,0,1,.7.14,2,2,0,0,1,.59.39,2,2,0,0,1,.4.59A1.66,1.66,0,0,1,38.16,2Zm-.55,4.53V21H35.08V6.55Z"/><path class="cls-1" d="M56.08,9.11a.89.89,0,0,1-.23.24.48.48,0,0,1-.31.09.84.84,0,0,1-.47-.18,7.25,7.25,0,0,0-.63-.39,5.54,5.54,0,0,0-.93-.39,4.93,4.93,0,0,0-3.22.2,3.45,3.45,0,0,0-1.36,1.09,4.92,4.92,0,0,0-.83,1.72,8.74,8.74,0,0,0-.28,2.26,8.23,8.23,0,0,0,.3,2.33A4.9,4.9,0,0,0,49,17.79a3.54,3.54,0,0,0,1.32,1.05,4,4,0,0,0,1.75.37A4.66,4.66,0,0,0,53.56,19a4.55,4.55,0,0,0,1-.5A7.26,7.26,0,0,0,55.2,18a.87.87,0,0,1,.52-.22.58.58,0,0,1,.49.24l.71.93a5.07,5.07,0,0,1-1.07,1,7.24,7.24,0,0,1-1.29.69,7,7,0,0,1-1.44.4,8.73,8.73,0,0,1-1.54.13,6.32,6.32,0,0,1-2.51-.5,5.67,5.67,0,0,1-2-1.44,6.71,6.71,0,0,1-1.33-2.33,9.3,9.3,0,0,1-.49-3.15,9.43,9.43,0,0,1,.45-3A6.86,6.86,0,0,1,47,8.42a5.89,5.89,0,0,1,2.12-1.54A7.14,7.14,0,0,1,52,6.32a6.78,6.78,0,0,1,2.68.49A6.4,6.4,0,0,1,56.75,8.2Z"/><path class="cls-1" d="M66.46,0V12.34h.65A1,1,0,0,0,68,12l4.55-4.89A2.06,2.06,0,0,1,73,6.68a1.15,1.15,0,0,1,.59-.13h2.3L70.55,12.2a3.43,3.43,0,0,1-.83.76,2.44,2.44,0,0,1,.46.39,2.89,2.89,0,0,1,.39.5L76.21,21H74a1.19,1.19,0,0,1-.56-.11.9.9,0,0,1-.41-.39l-4.74-5.91a1.25,1.25,0,0,0-.42-.39,1.68,1.68,0,0,0-.63-.09h-.73V21H63.91V0Z"/><path class="cls-1" d="M94.21,21V6.55h1.52a.63.63,0,0,1,.67.53l.19,1.48A7.33,7.33,0,0,1,98.38,7a4.21,4.21,0,0,1,2.31-.63,3.39,3.39,0,0,1,2.35.81,4.53,4.53,0,0,1,1.31,2.2,4.44,4.44,0,0,1,.8-1.36,4.66,4.66,0,0,1,1.1-.94,5.17,5.17,0,0,1,1.31-.54,6,6,0,0,1,1.4-.17,5.4,5.4,0,0,1,2,.36,4.16,4.16,0,0,1,1.51,1.07,4.7,4.7,0,0,1,.94,1.71,7.58,7.58,0,0,1,.33,2.33V21h-2.55V11.79a3.84,3.84,0,0,0-.74-2.57,2.61,2.61,0,0,0-2.13-.88,3.35,3.35,0,0,0-1.19.22,2.89,2.89,0,0,0-1,.65,3,3,0,0,0-.68,1.08,4.28,4.28,0,0,0-.25,1.5V21h-2.55V11.79A4.07,4.07,0,0,0,102,9.2a2.5,2.5,0,0,0-2-.86,3.16,3.16,0,0,0-1.74.51,5.68,5.68,0,0,0-1.46,1.37V21Z"/><path class="cls-1" d="M133.6,19a4.85,4.85,0,0,1-1.12,1,7.28,7.28,0,0,1-1.4.69,9.07,9.07,0,0,1-1.55.41,9.44,9.44,0,0,1-1.58.13,7.43,7.43,0,0,1-2.75-.5A6.2,6.2,0,0,1,123,19.19a6.76,6.76,0,0,1-1.43-2.42,9.61,9.61,0,0,1-.52-3.3,8.34,8.34,0,0,1,.47-2.82,6.51,6.51,0,0,1,1.33-2.27A6,6,0,0,1,125,6.87a6.86,6.86,0,0,1,2.82-.55,6.52,6.52,0,0,1,2.4.44A5.33,5.33,0,0,1,132.11,8a5.75,5.75,0,0,1,1.27,2,7.79,7.79,0,0,1,.45,2.74,1.59,1.59,0,0,1-.13.8.52.52,0,0,1-.48.2h-9.64a8.3,8.3,0,0,0,.38,2.38,4.7,4.7,0,0,0,.93,1.68,3.74,3.74,0,0,0,1.42,1,4.76,4.76,0,0,0,1.85.34,5.68,5.68,0,0,0,1.65-.22,8,8,0,0,0,2-1,1.17,1.17,0,0,1,.58-.22.55.55,0,0,1,.48.24Zm-2-6.76a4.92,4.92,0,0,0-.25-1.62,3.53,3.53,0,0,0-.72-1.27,3.31,3.31,0,0,0-1.16-.82,4.41,4.41,0,0,0-4.44.77,4.9,4.9,0,0,0-1.31,2.94Z"/><path class="cls-1" d="M141.22,19.41a2,2,0,0,1,.13-.7,1.9,1.9,0,0,1,.38-.57,2,2,0,0,1,.56-.39,1.83,1.83,0,0,1,.71-.14,1.74,1.74,0,0,1,.69.14,2,2,0,0,1,.56.39,1.92,1.92,0,0,1,.39.57,1.82,1.82,0,0,1,.14.7,1.78,1.78,0,0,1-.14.7,2,2,0,0,1-.39.56,1.79,1.79,0,0,1-.56.38,1.74,1.74,0,0,1-.69.14,1.83,1.83,0,0,1-.71-.14,1.79,1.79,0,0,1-.56-.38,1.7,1.7,0,0,1-.51-1.26Zm3-18.84V8.71q0,.64,0,1.26c0,.4,0,.81-.07,1.23s-.06.83-.1,1.26-.1.9-.15,1.39h-1.71c-.06-.49-.11-.95-.15-1.39s-.08-.85-.11-1.26-.05-.83-.07-1.23,0-.83,0-1.26V.57Z"/><path class="cls-1" d="M153.15,19.41a1.82,1.82,0,0,1,.14-.7,1.7,1.7,0,0,1,.37-.57,1.92,1.92,0,0,1,.57-.39,1.8,1.8,0,0,1,1.39,0,2,2,0,0,1,.56.39,1.92,1.92,0,0,1,.39.57,1.82,1.82,0,0,1,.14.7,1.78,1.78,0,0,1-.14.7,2,2,0,0,1-.39.56,1.79,1.79,0,0,1-.56.38,1.8,1.8,0,0,1-2-.38,1.76,1.76,0,0,1-.37-.56A1.78,1.78,0,0,1,153.15,19.41Zm3-18.84V8.71q0,.64,0,1.26c0,.4,0,.81-.07,1.23s-.06.83-.1,1.26-.1.9-.15,1.39h-1.71c-.06-.49-.11-.95-.15-1.39s-.08-.85-.11-1.26-.05-.83-.07-1.23,0-.83,0-1.26V.57Z"/></g></g></svg>